<svg xmlns="http://www.w3.org/2000/svg" width="812" height="594" fill="none" viewBox="0 0 812 594">
    <path fill="#F6F6F9" d="M30.07 377.405C20.594 269.19 43.286 169.898 105.76 102.274 168.424 34.757 270.578-1.024 384.208.022 497.837 1.068 622.651 39.01 700.353 125.307c77.512 86.19 107.724 220.631 59.205 301.07-48.621 80.615-175.972 107.229-295.285 147.266-119.021 39.969-230.091 14.084-306.401-17.79-76.5-31.981-118.329-70.233-127.803-178.448z"/>
    <path fill="#4643EE" d="M54.6 359.45c51.1-40.25 114.1-82.6 114.1-135.8 0-40.6-27.3-65.1-71.4-65.1-46.2 0-71.4 27.65-88.2 59.15l9.45 6.3c11.9-14.35 28.7-25.2 50.4-25.2 28 0 43.05 18.2 43.05 44.45 0 30.8-13.65 54.95-46.55 88.2L0 397.25v10.5h168.7l9.8-83.65H168c-17.5 33.25-26.25 35.35-51.1 35.35H54.6zM198.105 378c0 19.25 14.7 33.25 33.25 33.25 18.2 0 32.9-14 32.9-33.25s-14.7-33.25-32.9-33.25c-18.55 0-33.25 14-33.25 33.25zM409.938 407.75v-13.3c-30.8-2.1-34.3-4.55-34.3-25.9V158.9h-12.6c-16.8 24.5-33.951 36.05-67.201 42l-15.399 2.8v12.25h35.7v152.6c0 21.35-2.1 24.15-35.7 25.9v13.3h129.5zM573.8 212.1l10.15-65.1h-11.9c-7 14-9.8 15.05-22.05 15.05h-92.05l-21.7 133.7c72.8.35 107.45 20.3 107.45 59.15 0 26.6-15.75 43.05-39.9 43.05-25.55 0-37.1-17.5-37.1-43.75 0-8.4 1.4-15.05 2.8-20.65h-33.95c-9.1 4.9-17.15 15.75-17.15 28.7 0 27.3 28.7 49 82.6 49 50.75 0 89.25-29.05 89.25-79.8 0-60.55-48.65-86.1-130.9-85.4l5.95-33.95h108.5zM638.103 188.879c0 25.493 18.208 39.149 38.693 39.149s38.694-13.656 38.694-39.149c0-25.265-18.209-38.921-38.694-38.921-20.485 0-38.693 13.656-38.693 38.921zm23.216 0c0-17.298 4.097-31.41 15.477-31.41 11.609 0 15.478 14.112 15.478 31.41 0 17.526-3.869 31.866-15.478 31.866-11.38 0-15.477-14.34-15.477-31.866zm2.276 125.414h11.381l99.693-164.335h-11.153l-99.921 164.335zm136.794-38.921c0-25.493-18.436-39.15-38.921-39.15s-38.694 13.657-38.694 39.15c0 25.264 18.209 38.921 38.694 38.921 20.485 0 38.921-13.657 38.921-38.921zm-23.216 0c0 17.298-4.097 31.41-15.705 31.41-11.381 0-15.478-14.112-15.478-31.41 0-17.527 4.097-31.866 15.478-31.866 11.608 0 15.705 14.339 15.705 31.866zM640.69 360.704c3.305 0 4.804 1.684 4.804 4.438 0 3.029-1.438 4.559-3.886 4.559h-.275c-1.745 0-2.387-.428-2.387-2.081v-6.916h1.744zm-.612-9.853c2.662 0 4.254 1.377 4.254 4.101 0 2.815-1.408 4.253-4.223 4.253h-1.163v-8.354h1.132zm2.203 20.166c5.447 0 8.324-1.989 8.324-5.814 0-3.305-2.969-5.202-7.038-5.355 2.937-.306 5.752-1.867 5.752-4.958 0-3.549-2.723-5.355-7.466-5.355h-10.435v1.163c2.081.245 2.326.459 2.326 2.111v14.934c0 1.652-.245 1.866-2.326 2.111v1.163h10.863zM660.836 370.13c-2.234 0-3.122-3.367-3.122-8.14 0-3.948.827-6.426 2.877-6.426 2.234 0 3.121 3.366 3.121 8.139 0 3.948-.826 6.427-2.876 6.427zm-.153 1.193c4.773 0 8.262-3.642 8.262-8.813 0-4.927-3.336-8.14-8.201-8.14-4.774 0-8.232 3.642-8.232 8.813 0 4.927 3.305 8.14 8.171 8.14zM682.228 368.661c0 1.01-.428 1.163-1.744 1.254v1.102h8.476v-1.102c-1.316-.091-1.805-.244-1.805-1.254v-9.303c0-3.335-1.591-4.988-4.498-4.988-2.693 0-4.438 1.53-5.662 3.03l.123-3.03h-.918l-5.906 1.714v.704l1.775 1.071v10.802c0 1.01-.49 1.163-1.806 1.254v1.102h8.477v-1.102c-1.316-.091-1.745-.244-1.745-1.254v-10.374c.857-.551 1.898-.979 3.03-.979 1.622 0 2.203.826 2.203 2.417v8.936zM706.023 358.103l.183-3.702h-.856l-5.998 1.254v1.041l.459.092c1.101.244 1.316.795 1.316 1.744v9.027c-.918.49-1.683.888-2.754.888-1.592 0-2.234-1.01-2.234-2.724v-7.558l.153-3.764h-.827l-6.028 1.254v1.041l.459.092c1.102.244 1.316.795 1.316 1.744v7.742c0 3.488 1.805 5.049 4.529 5.049 2.57 0 4.192-1.53 5.386-2.938l-.092 2.938h.887l5.998-1.071v-1.071l-.734-.031c-1.071-.061-1.163-.459-1.163-1.499v-9.548zM715.174 371.323c3.917 0 6.457-1.958 6.457-5.355 0-3.183-1.959-4.437-5.417-5.631-2.203-.765-3.152-1.377-3.152-2.754 0-1.224.918-2.05 2.357-2.05 2.142 0 3.458 1.775 3.886 3.886h1.163v-3.702c-1.285-.827-3.06-1.347-5.08-1.347-3.55 0-5.998 1.836-5.998 5.11 0 2.938 1.775 4.315 5.111 5.417 2.264.795 3.427 1.346 3.427 2.968 0 1.53-1.224 2.295-2.754 2.295-2.356 0-3.948-1.958-4.59-4.529h-1.255l.184 4.162c1.254.918 3.213 1.53 5.661 1.53zM737.679 350.912c3.06 0 4.651 1.867 4.651 4.682 0 3.121-1.591 4.957-4.59 4.957h-1.224v-9.639h1.163zm-1.163 11.017h1.408l3.855 5.967c.918 1.469 1.683 2.478 2.571 3.121h6.365v-1.163c-1.5-.061-2.173-.642-3.489-2.509l-4.437-6.182c2.265-.642 4.774-2.356 4.774-5.599 0-3.673-3.091-6.029-8.109-6.029h-10.466v1.163c2.081.245 2.326.459 2.326 2.111v14.934c0 1.652-.245 1.866-2.326 2.111v1.163h9.884v-1.163c-2.111-.245-2.356-.459-2.356-2.111v-5.814zM758.253 368.6c-1.591 0-2.264-1.133-2.264-2.724 0-1.744.765-2.356 1.958-2.846l2.173-.857v5.692c-.673.459-1.163.735-1.867.735zm6.733-9.058c0-3.795-2.357-5.172-6.427-5.172-3.549 0-6.303 1.285-6.303 3.948 0 1.04.581 1.744 1.438 2.019l2.938-.398c-.184-.703-.276-1.346-.276-1.989 0-1.468.551-2.509 1.867-2.509 1.407 0 1.897 1.102 1.897 2.693v2.846l-4.743 1.683c-2.234.826-4.101 1.897-4.101 4.559 0 2.54 1.714 4.04 4.254 4.04 2.203 0 3.733-1.285 4.682-2.571.398 1.653 1.561 2.632 3.274 2.632 1.591 0 2.815-.612 3.734-1.652l-.184-.735c-.276.123-.673.245-1.132.245-.765 0-.918-.643-.918-1.53v-8.109zM773.985 350.606h-1.04c-1.439 2.05-3.458 3.795-5.723 4.743v.857h1.836v10.251c0 3.52 1.897 4.866 4.529 4.866 2.326 0 3.948-1.102 5.019-2.815l-.429-.612c-.734.551-1.438.826-2.234.826-1.315 0-1.958-.704-1.958-2.387v-10.129h3.794v-1.53h-3.794v-4.07zM786.994 354.37c-4.315 0-7.865 3.519-7.865 8.874 0 4.927 3.183 8.079 7.651 8.079 3.702 0 5.997-2.142 6.793-5.355l-.52-.306c-1.132 1.56-2.54 2.356-4.59 2.356-2.877 0-4.988-2.387-4.896-6.395h9.884v-.704c0-3.795-2.204-6.549-6.457-6.549zm-.337 1.194c1.806 0 2.479 1.897 2.479 4.804h-5.508c.183-2.815 1.163-4.804 3.029-4.804zM801.149 371.323c3.917 0 6.457-1.958 6.457-5.355 0-3.183-1.958-4.437-5.416-5.631-2.204-.765-3.152-1.377-3.152-2.754 0-1.224.918-2.05 2.356-2.05 2.142 0 3.458 1.775 3.886 3.886h1.163v-3.702c-1.285-.827-3.06-1.347-5.08-1.347-3.549 0-5.997 1.836-5.997 5.11 0 2.938 1.774 4.315 5.11 5.417 2.264.795 3.427 1.346 3.427 2.968 0 1.53-1.224 2.295-2.754 2.295-2.356 0-3.947-1.958-4.59-4.529h-1.255l.184 4.162c1.255.918 3.213 1.53 5.661 1.53zM641.975 406.946c-3.549 0-4.988-4.651-4.988-9.945 0-4.743 1.316-9.395 4.682-9.395 3.55 0 4.988 4.652 4.988 9.945 0 4.744-1.346 9.395-4.682 9.395zm-.398 1.377c6.09 0 10.619-4.437 10.619-11.475 0-5.662-3.519-10.619-10.16-10.619-6.089 0-10.587 4.437-10.587 11.475 0 5.662 3.519 10.619 10.128 10.619zM665.702 405.661c0 1.01-.428 1.163-1.744 1.254v1.102h8.477v-1.102c-1.316-.091-1.806-.244-1.806-1.254v-9.303c0-3.335-1.591-4.988-4.498-4.988-2.693 0-4.437 1.53-5.661 3.03l.122-3.03h-.918l-5.906 1.714v.704l1.775 1.071v10.802c0 1.01-.49 1.163-1.806 1.254v1.102h8.477v-1.102c-1.316-.091-1.744-.244-1.744-1.254v-10.374c.857-.551 1.897-.979 3.029-.979 1.622 0 2.203.826 2.203 2.417v8.936zM687.925 387.851c5.079 0 7.558 4.039 7.558 9.7 0 5.692-2.479 9.15-6.12 9.15h-.428c-1.531 0-2.265-.367-2.265-2.173v-16.677h1.255zm1.56 20.166c6.824 0 11.476-4.07 11.476-11.078 0-5.814-3.825-10.404-12.118-10.404h-9.701v1.163c2.081.245 2.326.459 2.326 2.111v14.934c0 1.652-.245 1.866-2.326 2.111v1.163h10.343zM710.581 391.37c-4.314 0-7.864 3.519-7.864 8.874 0 4.927 3.182 8.079 7.65 8.079 3.703 0 5.998-2.142 6.793-5.355l-.52-.306c-1.132 1.56-2.54 2.356-4.59 2.356-2.876 0-4.988-2.387-4.896-6.395h9.884v-.704c0-3.795-2.203-6.549-6.457-6.549zm-.336 1.194c1.805 0 2.478 1.897 2.478 4.804h-5.508c.184-2.815 1.163-4.804 3.03-4.804zM727.282 407.038c-1.775 0-2.509-1.224-2.509-3.397v-8.538c.643-.489 1.469-.795 2.295-.795 2.601 0 4.009 2.234 4.009 6.12 0 3.703-1.377 6.61-3.795 6.61zm-7.405 5.11c0 1.01-.49 1.163-1.836 1.255v1.101h9.18v-1.101c-1.867-.153-2.448-.245-2.448-1.377v-4.437c.612.489 1.683.734 2.876.734 4.713 0 8.416-3.366 8.416-9.486 0-4.835-2.479-7.467-6.151-7.467-2.509 0-4.192 1.469-5.141 2.907l.122-2.907h-.887l-5.906 1.714v.704l1.775 1.071v17.289zM746.094 407.13c-2.234 0-3.121-3.367-3.121-8.14 0-3.948.826-6.426 2.876-6.426 2.234 0 3.121 3.366 3.121 8.139 0 3.948-.826 6.427-2.876 6.427zm-.153 1.193c4.774 0 8.262-3.642 8.262-8.813 0-4.927-3.335-8.14-8.201-8.14-4.774 0-8.232 3.642-8.232 8.813 0 4.927 3.305 8.14 8.171 8.14zM761.852 408.323c3.917 0 6.457-1.958 6.457-5.355 0-3.183-1.959-4.437-5.416-5.631-2.204-.765-3.152-1.377-3.152-2.754 0-1.224.918-2.05 2.356-2.05 2.142 0 3.458 1.775 3.886 3.886h1.163v-3.702c-1.285-.827-3.06-1.347-5.08-1.347-3.549 0-5.997 1.836-5.997 5.11 0 2.938 1.774 4.315 5.11 5.417 2.264.795 3.427 1.346 3.427 2.968 0 1.53-1.224 2.295-2.754 2.295-2.356 0-3.947-1.958-4.59-4.529h-1.255l.184 4.162c1.255.918 3.213 1.53 5.661 1.53zM776.657 391.37h-.826l-5.875 1.714v.704l1.775 1.071v10.802c0 1.01-.49 1.163-1.806 1.254v1.102h8.538v-1.102c-1.316-.091-1.806-.244-1.806-1.254V391.37zm-2.478-1.622c1.652 0 2.754-1.193 2.754-2.601 0-1.407-1.102-2.632-2.754-2.632-1.653 0-2.724 1.225-2.724 2.632 0 1.408 1.071 2.601 2.724 2.601zM785.789 387.606h-1.04c-1.439 2.05-3.458 3.795-5.723 4.743v.857h1.836v10.251c0 3.52 1.898 4.866 4.529 4.866 2.326 0 3.948-1.102 5.019-2.815l-.429-.612c-.734.551-1.438.826-2.234.826-1.315 0-1.958-.704-1.958-2.387v-10.129h3.795v-1.53h-3.795v-4.07zM797.264 408.323c3.917 0 6.457-1.958 6.457-5.355 0-3.183-1.958-4.437-5.416-5.631-2.204-.765-3.152-1.377-3.152-2.754 0-1.224.918-2.05 2.356-2.05 2.142 0 3.458 1.775 3.886 3.886h1.163v-3.702c-1.285-.827-3.06-1.347-5.079-1.347-3.55 0-5.998 1.836-5.998 5.11 0 2.938 1.775 4.315 5.11 5.417 2.265.795 3.427 1.346 3.427 2.968 0 1.53-1.224 2.295-2.754 2.295-2.356 0-3.947-1.958-4.59-4.529h-1.254l.183 4.162c1.255.918 3.213 1.53 5.661 1.53zM805.373 405.416c0 1.683 1.285 2.907 2.907 2.907 1.591 0 2.877-1.224 2.877-2.907s-1.286-2.907-2.877-2.907c-1.622 0-2.907 1.224-2.907 2.907z"/>
</svg>
